#!OML:ASF H:\Terrain\Walking\May29\JustinRory\Justin.ASF
:FULLY-SPECIFIED
:DEGREES
113
root 7.1328 17.816 13.081 -177.547 1.27003 -177.242
lowerback 2.70621 1.05212 -1.08421
upperback 2.79164 1.50511 -0.318099
thorax 1.32642 0.786874 0.259846
lowerneck -15.5168 -4.19801 -13.1152
upperneck 15.4993 -3.79288 5.30663
head 7.70057 -2.14607 3.45956
rclavicle -1.11319e-014 9.14409e-015
rhumerus -33.1667 -25.8668 -69.3307
rradius 31.0833
rwrist -13.4726
rhand -7.70063 22.9362
rfingers 7.12502
rthumb 18.1969 -6.2326
lclavicle -1.11319e-014 9.14409e-015
lhumerus -33.2676 30.5862 64.8031
lradius 33.1745
lwrist 3.8776
lhand 3.88127 39.2865
lfingers 7.12502
lthumb 29.3023 66.9978
rfemur -13.2143 0.70874 13.2822
rtibia 30.0309
rfoot -16.3226 -8.97639
rtoes 2.75168
lfemur -9.16894 1.69762 -18.2264
ltibia 31.0809
lfoot -20.2228 -3.99947
ltoes -2.29379
114
root 7.16334 17.8117 13.0643 -177.732 1.21575 -177.511
lowerback 2.5972 1.16579 -1.22007
upperback 2.91213 1.66804 -0.440073
thorax 1.50943 0.869694 0.213002
lowerneck -16.9314 -3.59681 -12.9503
upperneck 16.9371 -3.06842 6.45572
head 8.36552 -1.70146 3.92421
rclavicle -1.51076e-014 2.54444e-014
rhumerus -33.4263 -27.1619 -68.4895
rradius 31.5858
rwrist -14.761
rhand -6.79866 23.2707
rfingers 7.12502
rthumb 19.0644 -5.815
lclavicle -1.51076e-014 2.54444e-014
lhumerus -32.9956 31.095 64.1855
lradius 33.317
lwrist 5.71634
lhand 5.19024 39.5867
lfingers 7.12502
lthumb 30.5514 67.0727
rfemur -12.8339 0.931504 13.1337
rtibia 29.5016
rfoot -15.621 -9.5536
rtoes 1.11612
lfemur -8.77804 1.4946 -18.4584
ltibia 30.8673
lfoot -20.355 -3.47744
ltoes -4.8925
115
root 7.19375 17.809 13.0536 -177.814 1.12857 -178.145
lowerback 2.56962 1.16576 -1.7745
upperback 2.90835 1.66742 -0.620221
thorax 1.51197 0.863046 0.339127
lowerneck -17.2201 -3.21366 -12.28
upperneck 17.136 -2.61697 6.14177
head 8.42076 -1.47797 3.76505
rclavicle -8.54774e-015 0
rhumerus -33.7005 -27.8087 -67.7181
rradius 32.1424
rwrist -16.5679
rhand -6.14263 23.6776
rfingers 7.12502
rthumb 19.6952 -5.34461
lclavicle -8.54774e-015 0
lhumerus -32.9983 31.9337 63.3475
lradius 33.5363
lwrist 7.21028
lhand 6.38322 39.8657
lfingers 7.12502
lthumb 31.6884 67.1337
rfemur -12.5886 0.915997 12.5459
rtibia 29.0341
rfoot -14.6914 -9.44738
rtoes -0.0819689
lfemur -8.53707 1.49131 -19.0453
ltibia 30.6225
lfoot -20.3544 -3.52432
ltoes -6.61791
116
root 7.2249 17.805 13.0508 -177.729 1.02845 -178.462
lowerback 2.52583 1.11804 -2.06308
upperback 2.85859 1.59891 -0.669399
thorax 1.48089 0.823814 0.451274
lowerneck -17.0044 -2.91801 -11.6076
upperneck 16.559 -2.26861 5.58643
head 8.13917 -1.30895 3.49973
rclavicle 1.68967e-014 1.39149e-014
rhumerus -33.7633 -28.3294 -66.9407
rradius 32.7508
rwrist -18.5964
rhand -5.69304 23.7312
rfingers 7.12502
rthumb 20.1274 -5.24618
lclavicle 1.68967e-014 1.39149e-014
lhumerus -32.9398 33.2052 62.4454
lradius 33.6549
lwrist 8.64448
lhand 7.70705 40.1692
lfingers 7.12502
lthumb 32.9484 67.1802
rfemur -12.4788 0.894679 12.2302
rtibia 28.5102
rfoot -13.5906 -8.42554
rtoes 1.31258
lfemur -8.58532 1.40173 -19.2935
ltibia 30.5362
lfoot -20.333 -3.58962
ltoes -6.57176
117
root 7.25326 17.8133 13.042 -177.673 0.95913 -178.3
lowerback 2.40204 1.08307 -1.86273
upperback 2.90675 1.55569 -0.55188
thorax 1.60214 0.802508 0.463711
lowerneck -17.3412 -2.60222 -11.3079
upperneck 16.5252 -1.85238 5.56122
head 8.14379 -1.08653 3.49274
rclavicle 8.94531e-015 -3.97569e-015
rhumerus -33.6647 -29.049 -66.0482
rradius 33.3361
rwrist -20.5808
rhand -5.68845 23.7701
rfingers 7.12502
rthumb 20.1318 -5.20686
lclavicle 8.94531e-015 -3.97569e-015
lhumerus -32.7279 34.4761 61.5697
lradius 33.8289
lwrist 10.2555
lhand 9.01157 40.3802
lfingers 7.12502
lthumb 34.1883 67.122
rfemur -12.3003 1.00641 12.4672
rtibia 28.1037
rfoot -12.8568 -7.54213
rtoes 4.30452
lfemur -8.61903 0.999166 -19.0406
ltibia 30.5695
lfoot -20.2615 -3.38857
ltoes -6.20189
118
root 7.28223 17.8369 13.025 -177.549 0.928391 -177.945
lowerback 2.22032 1.16814 -1.41277
upperback 2.79514 1.66245 -0.458242
thorax 1.59557 0.858272 0.309563
lowerneck -17.2287 -2.35253 -10.9567
upperneck 16.4786 -1.62281 5.61464
head 8.08301 -0.950339 3.48082
rclavicle 1.93815e-014 -1.19271e-015
rhumerus -34.2426 -29.7873 -64.8673
rradius 34.2048
rwrist -22.7831
rhand -5.83889 23.7934
rfingers 7.12502
rthumb 19.9872 -5.19868
lclavicle 1.93815e-014 -1.19271e-015
lhumerus -32.4688 34.5876 60.9777
lradius 34.2961
lwrist 13.1199
lhand 8.62509 41.1969
lfingers 7.12502
lthumb 33.8211 68.0201
rfemur -12.1287 1.1592 12.9942
rtibia 27.7086
rfoot -12.6501 -7.82141
rtoes 4.58933
lfemur -8.77198 0.519399 -18.5515
ltibia 30.7303
lfoot -20.3449 -3.18048
ltoes -5.33602
119
root 7.3191 17.8258 13.0145 -177.329 0.904227 -177.711
lowerback 2.05137 1.33956 -1.06331
upperback 2.52494 1.8756 -0.49289
thorax 1.42084 0.964952 0.0768561
lowerneck -16.6548 -2.1983 -10.5103
upperneck 16.1444 -1.60119 5.70919
head 7.86389 -0.902419 3.43693
rclavicle -2.18663e-015 2.38542e-015
rhumerus -35.2169 -30.6746 -63.4838
rradius 35.139
rwrist -25.1447
rhand -5.9497 23.5401
rfingers 7.12502
rthumb 19.8807 -5.463
lclavicle -2.18663e-015 2.38542e-015
lhumerus -32.2139 34.2575 60.3229
lradius 34.8928
lwrist 16.0532
lhand 8.49831 42.8211
lfingers 7.12502
lthumb 33.7007 69.6708
rfemur -12.1221 1.23026 13.4101
rtibia 27.4289
rfoot -12.5301 -8.75973
rtoes 1.09783
lfemur -9.08174 0.558426 -18.1522
ltibia 30.8699
lfoot -20.508 -3.01874
ltoes -5.16582
120
root 7.35361 17.8394 13.0067 -177.143 0.856907 -177.817
lowerback 1.99134 1.32257 -1.19535
upperback 2.31311 1.83669 -0.455215
thorax 1.23198 0.939061 0.187527
lowerneck -16.6783 -1.9088 -10.5249
upperneck 16.2966 -1.24524 5.90964
head 7.88725 -0.719968 3.55109
rclavicle -8.84592e-015 1.51076e-014
rhumerus -35.6268 -31.1782 -62.1754
rradius 35.9577
rwrist -27.2917
rhand -6.39884 23.3703
rfingers 7.12502
rthumb 19.4489 -5.67703
lclavicle -8.84592e-015 1.51076e-014
lhumerus -32.568 35.9795 58.5547
lradius 35.0903
lwrist 15.4155
lhand 10.0892 42.9439
lfingers 7.12502
lthumb 35.211 69.4504
rfemur -12.1325 1.19324 13.4203
rtibia 27.2534
rfoot -12.4616 -9.21049
rtoes -1.70154
lfemur -9.34626 0.526977 -18.0934
ltibia 30.9705
lfoot -20.4542 -3.51944
ltoes -1.23184
121
root 7.38244 17.8521 13 -177.08 0.768735 -178.09
lowerback 1.96673 1.18519 -1.45847
upperback 2.2661 1.64608 -0.362307
thorax 1.18996 0.837999 0.431402
lowerneck -17.0402 -1.66218 -10.9429
upperneck 16.6517 -0.822341 6.16371
head 8.0336 -0.526386 3.76327
rclavicle -1.76421e-014 1.66979e-014
rhumerus -35.5398 -31.7564 -60.9195
rradius 36.7067
rwrist -29.0021
rhand -7.03297 23.1479
rfingers 7.12502
rthumb 18.8391 -5.95984
lclavicle -1.76421e-014 1.66979e-014
lhumerus -32.3198 36.6056 58.039
lradius 35.9631
lwrist 18.8936
lhand 10.0752 44.9375
lfingers 7.12502
lthumb 35.1977 71.4472
rfemur -12.1813 1.04403 13.1726
rtibia 27.2587
rfoot -12.4782 -8.74592
rtoes -0.70329
lfemur -9.41777 0.374419 -18.2796
ltibia 30.9698
lfoot -20.4118 -3.74023
ltoes 0.263321
122
root 7.41005 17.8535 12.9935 -177.197 0.672532 -178.011
lowerback 1.98449 1.1898 -1.17245
upperback 2.29299 1.65614 -0.363831
thorax 1.21513 0.847346 0.269818
lowerneck -17.0798 -1.65641 -10.9744
upperneck 16.7614 -0.825738 6.25453
head 8.07756 -0.524117 3.80138
rclavicle -6.01324e-015 8.34896e-015
rhumerus -35.7637 -33.2605 -59.4273
rradius 37.4427
rwrist -30.5188
rhand -7.28956 22.7334
rfingers 7.12502
rthumb 18.5923 -6.39809
lclavicle -6.01324e-015 8.34896e-015
lhumerus -31.7365 37.374 57.1584
lradius 36.405
lwrist 20.9759
lhand 8.51832 44.0995
lfingers 7.12502
lthumb 33.7197 70.9451
rfemur -12.034 0.898606 13.3173
rtibia 27.1973
rfoot -12.4505 -8.06823
rtoes 1.5323
lfemur -9.28177 -0.0946616 -18.1469
ltibia 31.0033
lfoot -20.4831 -3.25825
ltoes -0.00433991
123
root 7.44614 17.855 12.9942 -177.358 0.670336 -177.766
lowerback 2.12258 1.2728 -0.811491
upperback 2.25236 1.76769 -0.384661
thorax 1.10579 0.908596 0.0414062
lowerneck -16.7778 -1.69655 -10.691
upperneck 16.6993 -0.987009 6.22577
head 8.01637 -0.589727 3.72306
rclavicle 7.85199e-015 1.78906e-014
rhumerus -36.2629 -34.3949 -57.9101
rradius 38.3443
rwrist -32.5999
rhand -7.90883 22.4979
rfingers 7.12502
rthumb 17.9966 -6.68949
lclavicle 7.85199e-015 1.78906e-014
lhumerus -31.1762 38.1652 56.0428
lradius 36.7627
lwrist 22.4025
lhand 8.43903 44.0499
lfingers 7.12502
lthumb 33.6444 70.9119
rfemur -11.8789 0.843264 13.7137
rtibia 27.2194
rfoot -12.3838 -7.8005
rtoes 2.15346
lfemur -9.05932 -0.552827 -17.8093
ltibia 31.0395
lfoot -20.6322 -2.6531
ltoes 0.210434
124
root 7.48756 17.8562 12.9971 -177.433 0.70362 -177.706
lowerback 2.14536 1.2353 -0.890953
upperback 2.26418 1.71509 -0.252737
thorax 1.09921 0.879958 0.220992
lowerneck -16.5659 -1.81362 -10.8126
upperneck 16.5118 -1.14727 6.29099
head 7.93277 -0.665125 3.74249
rclavicle -6.31141e-015 9.93923e-015
rhumerus -36.2393 -34.7668 -56.5868
rradius 39.2324
rwrist -34.9389
rhand -9.18777 22.1831
rfingers 7.12502
rthumb 16.7657 -7.11297
lclavicle -6.31141e-015 9.93923e-015
lhumerus -30.881 39.2851 54.9548
lradius 37.4097
lwrist 24.1017
lhand 8.31523 44.1642
lfingers 7.12502
lthumb 33.5267 71.0518
rfemur -11.8546 0.67755 13.9091
rtibia 27.3084
rfoot -12.1459 -7.6805
rtoes 2.42814
lfemur -8.93549 -0.657781 -17.6215
ltibia 31.0999
lfoot -20.838 -2.39349
ltoes -0.358928
125
root 7.52524 17.8527 13.0016 -177.506 0.672504 -177.834
lowerback 2.32351 1.15 -1.19156
upperback 2.18138 1.58945 -0.078899
thorax 0.903114 0.811573 0.563071
lowerneck -16.307 -2.15883 -10.972
upperneck 16.2756 -1.57048 6.12023
head 7.84997 -0.890319 3.65684
rclavicle -1.88845e-014 -8.74653e-015
rhumerus -36.2778 -34.9095 -55.1143
rradius 40.2681
rwrist -37.2768
rhand -10.7552 21.6174
rfingers 7.12502
rthumb 15.2563 -7.79999
lclavicle -1.88845e-014 -8.74653e-015
lhumerus -30.8434 40.4185 53.8035
lradius 38.2943
lwrist 26.1867
lhand 8.54973 44.4137
lfingers 7.12502
lthumb 33.7495 71.2527
rfemur -11.8222 0.493533 13.8285
rtibia 27.3839
rfoot -12.0679 -7.33101
rtoes 4.96057
lfemur -8.87421 -0.821224 -17.6662
ltibia 31.1545
lfoot -20.9441 -2.11681
ltoes -2.04329
126
root 7.55877 17.8461 12.9955 -177.766 0.552021 -177.568
lowerback 2.7094 1.12118 -0.886996
upperback 2.04643 1.5463 0.0519903
thorax 0.55375 0.793347 0.516544
lowerneck -16.2734 -2.17687 -11.2037
upperneck 16.7096 -1.56089 6.04643
head 7.98957 -0.926276 3.67686
rclavicle -1.42628e-014 1.03368e-014
rhumerus -36.8876 -35.1762 -53.4047
rradius 41.5903
rwrist -39.842
rhand -12.0526 21.4616
rfingers 7.12502
rthumb 14.0063 -8.04655
lclavicle -1.42628e-014 1.03368e-014
lhumerus -30.6754 41.1158 52.6694
lradius 39.3307
lwrist 28.5253
lhand 8.47945 45.2038
lfingers 7.12502
lthumb 33.6828 72.0574
rfemur -11.5345 0.507707 14.1845
rtibia 27.4938
rfoot -12.4274 -7.06086
rtoes 7.2117
lfemur -8.58517 -0.930016 -17.259
ltibia 31.0989
lfoot -20.9198 -2.07542
ltoes -3.2729
127
root 7.5935 17.8504 12.9651 -178.092 0.384764 -177.146
lowerback 2.75861 1.08509 -0.383127
upperback 2.08901 1.51063 0.132363
thorax 0.580801 0.781264 0.317157
lowerneck -16.3739 -2.43436 -11.3288
upperneck 17.0491 -1.94106 6.28101
head 8.15929 -1.10167 3.73837
rclavicle 5.96354e-016 3.97569e-016
rhumerus -37.4694 -35.7115 -51.7026
rradius 42.887
rwrist -42.5034
rhand -13.281 21.3481
rfingers 7.12502
rthumb 12.8224 -8.23805
lclavicle 5.96354e-016 3.97569e-016
lhumerus -30.1064 41.5173 51.6981
lradius 40.4815
lwrist 31.0418
lhand 7.66192 46.1709
lfingers 7.12502
lthumb 32.9055 73.191
rfemur -11.1081 0.541805 14.7996
rtibia 27.6294
rfoot -12.8284 -7.242
rtoes 6.83585
lfemur -8.02637 -1.04451 -16.6381
ltibia 30.9219
lfoot -20.9807 -2.24139
ltoes -2.92198
